<?xml version='1.0' encoding='utf-8'?>
<svg xmlns="http://www.w3.org/2000/svg" viewBox="0 0 960 680" role="img" aria-labelledby="title desc"><title id="title">기초 해부학 · 구조 식별</title><desc id="desc">주황색으로 강조된 구조의 이름을 말하세요. 해부 관계를 단순화한 자체 제작 개념도입니다.</desc><style>text{font-family:system-ui,"Noto Sans KR",sans-serif;fill:#243f4b}.bone{fill:#eee5d6;stroke:#b09c7c;stroke-width:2}.skin{fill:#faf3eb;stroke:#cab6a4;stroke-width:2}.line{fill:none;stroke:#b09c7c;stroke-width:2}.muscle{fill:#60b6b0;stroke:#176f70;stroke-width:2}.fiber{fill:none;stroke:#d6f0e9;stroke-width:1.5;pointer-events:none}.nerve{fill:none;stroke:#d6a137;stroke-width:5;stroke-linecap:round}.link:hover .muscle,.link:focus .muscle,.link:target .muscle{fill:#e2a17b;stroke:#a54b28}.link:hover .button,.link:focus .button,.link:target .button{fill:#d7edea}.link:focus{outline:2px solid #176f70}.button{fill:#edf7f4;stroke:#6ba8a3;stroke-width:1.5}.small{fill:#536974}</style><rect x="0" y="0" width="960" height="680" rx="20" fill="#fff" /><rect x="32.0" y="99" width="218.0" height="479" rx="12" fill="#f7f9f8" /><g transform="translate(38.00 155) scale(0.858)"><path class="skin" d="M51 47 Q120 29 190 47 L180 244 Q175 294 161 326 L84 326 Q67 296 61 244 Z" /><path class="bone" d="M113 65 L132 65 L136 269 L110 269 Z" /><ellipse class="bone" cx="123" cy="291" rx="22" ry="26" /><path class="bone" d="M122 314 L123 345" /></g><g id="rectus-femoris" class="link"><g transform="translate(38.00 155) scale(0.858)"><path class="muscle" d="M121 51 Q97 112 99 175 Q100 230 116 266 L132 266 Q148 222 147 174 Q145 103 127 51 Z" /><path class="fiber" d="M121 83 L121 251 M130 89 L130 245" /></g></g><rect x="258.0" y="99" width="218.0" height="479" rx="12" fill="#f7f9f8" /><g transform="translate(264.00 155) scale(0.858)"><path class="skin" d="M51 47 Q120 29 190 47 L180 244 Q175 294 161 326 L84 326 Q67 296 61 244 Z" /><path class="bone" d="M113 65 L132 65 L136 269 L110 269 Z" /><ellipse class="bone" cx="123" cy="291" rx="22" ry="26" /><path class="bone" d="M122 314 L123 345" /></g><g id="vastus-medialis" class="link"><g transform="translate(264.00 155) scale(0.858)"><path class="muscle" d="M144 109 Q173 151 172 223 Q172 257 148 278 L139 263 Q157 229 140 179 Z" /><path class="fiber" d="M155 178 L160 218 L148 262 M158 238 L146 262" /></g></g><rect x="484.0" y="99" width="218.0" height="479" rx="12" fill="#f7f9f8" /><g transform="translate(490.00 155) scale(0.858)"><path class="skin" d="M51 47 Q120 29 190 47 L180 244 Q175 294 161 326 L84 326 Q67 296 61 244 Z" /><path class="bone" d="M113 65 L132 65 L136 269 L110 269 Z" /><ellipse class="bone" cx="123" cy="291" rx="22" ry="26" /><path class="bone" d="M122 314 L123 345" /></g><g id="hamstrings" class="link"><g transform="translate(490.00 155) scale(0.858)"><path class="muscle" d="M79 60 Q62 120 73 207 L89 282 L110 282 L119 210 L116 61 Z M128 60 L126 209 L140 282 L160 282 L173 205 Q178 117 161 58 Z" /><path class="fiber" d="M91 75 L96 264 M144 75 L151 264" /></g></g><rect x="710.0" y="99" width="218.0" height="479" rx="12" fill="#f7f9f8" /><g transform="translate(716.00 155) scale(0.858)"><path class="skin" d="M51 47 Q120 29 190 47 L180 244 Q175 294 161 326 L84 326 Q67 296 61 244 Z" /><path class="bone" d="M113 65 L132 65 L136 269 L110 269 Z" /><ellipse class="bone" cx="123" cy="291" rx="22" ry="26" /><path class="bone" d="M122 314 L123 345" /></g><g id="adductor-longus" class="link"><g transform="translate(716.00 155) scale(0.858)"><path class="muscle" d="M111 61 L135 63 L160 238 L143 267 L123 196 L105 101 Z" /><path class="fiber" d="M120 77 L149 238" /></g></g><text x="28" y="43" font-size="22">허벅지·무릎 · 구조 식별</text><text x="28" y="74" font-size="15">주황색으로 강조된 구조를 확인하세요.</text><text x="28" y="613" font-size="15">패널별로 층·관점을 나눈 개념도 · 실제 해부사진·현미경 사진과 다릅니다.</text></svg>