<?xml version='1.0' encoding='utf-8'?>
<svg xmlns="http://www.w3.org/2000/svg" viewBox="0 0 640 660" role="img" aria-labelledby="title desc"><title id="title">경혈 위치 연습 — 붉은 점의 위치를 확인하세요.</title><desc id="desc">경혈 위치 연습 — 붉은 점의 위치를 확인하세요.</desc><style>text{font-family:system-ui,"Noto Sans KR",sans-serif;fill:#263e48}.skin{fill:#f9efe5;stroke:#b18a72;stroke-width:2}.bone{fill:none;stroke:#d4b9a0;stroke-width:11;stroke-linecap:round}.tendon{fill:none;stroke:#ae8c73;stroke-width:5}.joint{fill:#ead4bd;stroke:#b18a72;stroke-width:2}.guide{fill:none;stroke:#8c9da3;stroke-width:1.3;stroke-dasharray:4 4}.crease{fill:none;stroke:#b18a72;stroke-width:2}.landmark{font-size:13px}.callout{fill:none;stroke:#657f88;stroke-width:1.1}.point circle{fill:#087d80;stroke:#fff;stroke-width:2.5}.point text{font-size:16px;font-weight:700;fill:#08676b}.point:target circle,.point:hover circle,.point:focus circle{fill:#bd4c23;stroke:#7f3218;stroke-width:3}.point:target text,.point:hover text,.point:focus text{fill:#9e3c18}.point:focus{outline:2px solid #08676b}</style><rect width="640" height="660" rx="18" fill="white" /><text x="24" y="38" font-size="22" font-weight="700">경혈 위치 연습</text><path class="skin" d="M199 107 Q320 77 446 107 L452 552 Q320 576 187 552 Z" /><path class="bone" d="M270 121 L270 550" /><circle class="joint" cx="270" cy="135.0" r="6" /><path class="guide" d="M249 145.0 L429 145.0" /><text class="landmark" x="200" y="149.0">T1</text><circle class="joint" cx="270" cy="173.0" r="6" /><path class="guide" d="M249 183.0 L429 183.0" /><text class="landmark" x="200" y="187.0">T2</text><circle class="joint" cx="270" cy="211.0" r="6" /><path class="guide" d="M249 221.0 L429 221.0" /><text class="landmark" x="200" y="225.0">T3</text><circle class="joint" cx="270" cy="249.0" r="6" /><path class="guide" d="M249 259.0 L429 259.0" /><text class="landmark" x="200" y="263.0">T4</text><circle class="joint" cx="270" cy="287.0" r="6" /><path class="guide" d="M249 297.0 L429 297.0" /><text class="landmark" x="200" y="301.0">T5</text><circle class="joint" cx="270" cy="325.0" r="6" /><path class="guide" d="M249 335.0 L429 335.0" /><text class="landmark" x="200" y="339.0">T6</text><circle class="joint" cx="270" cy="363.0" r="6" /><path class="guide" d="M249 373.0 L429 373.0" /><text class="landmark" x="200" y="377.0">T7</text><circle class="joint" cx="270" cy="401.0" r="6" /><path class="guide" d="M249 411.0 L429 411.0" /><text class="landmark" x="200" y="415.0">T8</text><circle class="joint" cx="270" cy="439.0" r="6" /><path class="guide" d="M249 449.0 L429 449.0" /><text class="landmark" x="200" y="453.0">T9</text><circle class="joint" cx="270" cy="477.0" r="6" /><path class="guide" d="M249 487.0 L429 487.0" /><text class="landmark" x="200" y="491.0">T10</text><circle class="joint" cx="270" cy="515.0" r="6" /><path class="guide" d="M249 525.0 L429 525.0" /><text class="landmark" x="200" y="529.0">T11</text><text class="landmark" x="219" y="604">가시돌기 아래 높이 · 오른쪽만 표시</text><g id="GV13" class="point"><circle cx="270" cy="145.0" r="7" /></g><g id="GV12" class="point"><circle cx="270" cy="221.0" r="7" /></g><g id="GV11" class="point"><circle cx="270" cy="297.0" r="7" /></g><g id="GV10" class="point"><circle cx="270" cy="335.0" r="7" /></g><g id="GV9" class="point"><circle cx="270" cy="373.0" r="7" /></g><g id="GV8" class="point"><circle cx="270" cy="449.0" r="7" /></g><g id="GV7" class="point"><circle cx="270" cy="487.0" r="7" /></g><g id="GV6" class="point"><circle cx="270" cy="525.0" r="7" /></g><text x="24" y="641" font-size="12">민성 한의학 아카이브 · 해부학적 위치 관계를 단순화한 교육용 도해</text></svg>