<svg xmlns="http://www.w3.org/2000/svg" viewBox="0 0 960 800" role="img" aria-labelledby="title desc"><title id="title">족소양담경 · 시작혈부터 마지막혈까지</title><desc id="desc">눈 가쪽 → 관자놀이·귀 주위·뒤통수 → 목·어깨 → 옆가슴·옆구리 → 엉덩이·다리 바깥 → 넷째발가락. 몸의 옆면을 봅니다. 머리의 굽이치는 경로는 개요이며 풍지·양릉천 등 상세 위치는 경혈 도해로 확인합니다.</desc><style>text{font-family:system-ui,"Noto Sans KR",sans-serif;fill:#29424a}.skin{fill:#f9efe5;stroke:#b18a72;stroke-width:1.8}.landmark{fill:none;stroke:#c7ad95;stroke-width:2}.guide{fill:none;stroke:#95a7aa;stroke-width:1.3;stroke-dasharray:5 5}.route{fill:none;stroke:#087d80;stroke-width:4;stroke-linecap:round;stroke-linejoin:round;marker-end:url(#arrow)}.point circle{fill:#087d80;stroke:white;stroke-width:2}.point.end circle{fill:#ba552f}.point text{font-size:15px;font-weight:700;fill:#08676b}.point.end text{fill:#a04422}.point:hover circle,.point:focus circle,.point:target circle{fill:#bf4129;stroke:#783627;stroke-width:3}.point:focus{outline:2px solid #087d80}.callout{fill:none;stroke:#799097;stroke-width:1}.small{font-size:13px;fill:#546b73}</style><defs><marker id="arrow" viewBox="0 0 10 10" refX="8" refY="5" markerWidth="5" markerHeight="5" orient="auto-start-reverse"><path d="M0 0 L10 5 L0 10 Z" fill="#087d80"/></marker></defs><rect width="960" height="800" rx="18" fill="white"/><text x="30" y="39" font-size="25" class="">족소양담경 GB</text><text x="30" y="69" font-size="16" class="">시작혈 → 지나가는 부위 → 마지막혈</text><path class="skin" d="M246 105 Q274 70 307 99 Q331 139 307 182 L299 210 L320 235 Q338 293 311 362 L313 410 Q333 440 319 477 L311 557 L305 674 L310 713 Q286 731 236 721 L235 708 L272 681 L267 565 L244 463 L244 402 L234 338 L227 262 L249 211 L251 187 L232 171 L233 154 L217 150 L234 133 Z"/><path class="landmark" d="M243 128 L253 130 M267 246 Q248 303 259 352 L270 457 M258 709 L306 709"/><ellipse class="landmark" cx="295" cy="141" rx="10" ry="17"/><text x="45" y="116" font-size="16" class="">옆면</text><path class="route" d="M248 131 L277 116 Q278 88 298 96 L312 118 L307 171 Q321 149 316 105 Q294 72 270 99 L263 117 Q279 80 300 82 L320 124 L307 192"/><path class="route" d="M307 192 L310 222 L289 262 L278 318 L294 361 L284 409 L303 450"/><path class="route" d="M303 450 L296 500 L295 548 L293 613 L291 683 L266 716"/><a id="GB1" class="point" href="/acupuncture/points/gb1/" target="_top" aria-label="동자료 GB1 상세 도해"><title>동자료 GB1</title><path class="callout" d="M248 131 L100 126"/><circle cx="248" cy="131" r="6"/><text x="38" y="131" font-size="16" class="">GB1</text></a><a id="GB20" class="point" href="/acupuncture/points/gb20-fengchi/" target="_top" aria-label="풍지(風池) GB20 상세 도해"><title>풍지(風池) GB20</title><path class="callout" d="M307 192 L412 187"/><circle cx="307" cy="192" r="6"/><text x="422" y="192" font-size="16" class="">GB20</text></a><a id="GB30" class="point" href="/acupuncture/points/gb30-huantiao/" target="_top" aria-label="환도 GB30 상세 도해"><title>환도 GB30</title><path class="callout" d="M303 450 L412 445"/><circle cx="303" cy="450" r="6"/><text x="422" y="450" font-size="16" class="">GB30</text></a><a id="GB34" class="point" href="/acupuncture/points/gb34-yanglingquan/" target="_top" aria-label="양릉천 GB34 상세 도해"><title>양릉천 GB34</title><path class="callout" d="M295 548 L412 543"/><circle cx="295" cy="548" r="6"/><text x="422" y="548" font-size="16" class="">GB34</text></a><a id="GB44" class="point end" href="/acupuncture/points/gb44/" target="_top" aria-label="족규음 GB44 상세 도해"><title>족규음 GB44</title><path class="callout" d="M266 716 L100 711"/><circle cx="266" cy="716" r="6"/><text x="38" y="716" font-size="16" class="">GB44</text></a><rect x="540" y="123" width="386" height="62" rx="10" fill="#f5f8f8"/><text x="553" y="144" font-size="13" class="">체표 첫 혈</text><a href="/acupuncture/points/gb1/" target="_top"><text x="553" y="169" font-size="20" class="">동자료 GB1</text></a><rect x="540" y="193" width="386" height="62" rx="10" fill="#f5f8f8"/><text x="553" y="214" font-size="13" class="">체표 마지막 혈</text><a href="/acupuncture/points/gb44/" target="_top"><text x="553" y="239" font-size="20" class="">족규음 GB44</text></a><circle cx="552" cy="298" r="4" fill="#087d80"/><text x="568" y="303" font-size="15" class="">머리 옆면에서 앞뒤로 굽이침</text><path class="guide" d="M552 310 L552 333"/><circle cx="552" cy="349" r="4" fill="#087d80"/><text x="568" y="354" font-size="15" class="">목·어깨를 지나 몸통 옆면</text><path class="guide" d="M552 361 L552 384"/><circle cx="552" cy="400" r="4" fill="#087d80"/><text x="568" y="405" font-size="15" class="">엉덩이·무릎·종아리의 바깥쪽</text><path class="guide" d="M552 412 L552 435"/><circle cx="552" cy="451" r="4" fill="#087d80"/><text x="568" y="456" font-size="15" class="">가쪽 발목 앞에서 넷째발가락</text><text x="540" y="514" font-size="13" class="small">경혈 코드·이름을 누르면 상세 위치로 이동합니다.</text><text x="30" y="762" font-size="14" class="small">한쪽 경맥의 체표 흐름을 펼친 교육용 개요 · 내부 장부·깊이·자침 방향은 표시하지 않음</text><text x="30" y="786" font-size="12" class="small">민성 한의학 아카이브 · 정확한 위치는 연결된 361경혈 도해와 본문에서 확인</text></svg>